<svg width="180" height="71" viewBox="0 0 180 71" fill="none" xmlns="http://www.w3.org/2000/svg">
<path d="M35.2214 57.9977C34.3921 58.0219 33.585 57.7267 32.9655 57.1727C32.346 56.6186 31.9609 55.8477 31.8893 55.0178L31.5143 52.0667C27.9428 51.0447 25.8535 48.3912 25.3107 44.1778L22.0964 19.3134C21.4069 19.202 20.709 19.1516 20.0107 19.1628C18.9771 19.1543 17.9473 19.2883 16.95 19.5609V57.2698H10.6428V26.9585C10.6428 22.8455 12.4821 19.941 15.8321 18.7325V16.7782C15.8321 14.5192 17.2 13.0023 19.2321 13.0023C21.2643 13.0023 22.5393 14.2717 22.8678 16.5882L23.1178 18.3991C26.7857 19.4282 28.9285 22.3865 29.5643 27.188L32.5357 51.1559C34.3109 51.5002 36.1354 51.5002 37.9107 51.1559L40.8821 27.1916C41.5035 22.3865 43.6714 19.4282 47.3285 18.3883L47.5785 16.5774C47.9071 14.2717 49.2 12.9916 51.2143 12.9916C53.2285 12.9916 54.6143 14.5084 54.6143 16.7675V18.7218C57.9643 19.9302 59.8035 22.8348 59.8035 26.9477V57.259H53.4893V19.5573C52.492 19.2847 51.4621 19.1508 50.4285 19.1593C49.7303 19.1481 49.0323 19.1985 48.3428 19.3099L45.1285 44.1778C44.5964 48.3159 42.4571 51.034 38.925 52.0667L38.5714 55.0214C38.5162 55.8606 38.1334 56.644 37.5061 57.2014C36.8788 57.7587 36.0577 58.0449 35.2214 57.9977ZM32.6821 52.3536L33.0071 54.8959C33.0412 55.4534 33.2928 55.975 33.7073 56.3475C34.1217 56.72 34.6658 56.9135 35.2214 56.8861C35.4978 56.906 35.7754 56.87 36.0378 56.7803C36.3001 56.6905 36.5418 56.5488 36.7486 56.3636C36.9554 56.1784 37.1231 55.9533 37.2418 55.7018C37.3604 55.4504 37.4275 55.1775 37.4393 54.8995L37.7643 52.3536C36.0815 52.6309 34.3649 52.6309 32.6821 52.3536V52.3536ZM54.6143 56.1582H58.6785V26.9585C58.6785 23.473 57.2785 21.0669 54.6143 19.9446V56.1582ZM11.7571 56.1582H15.8321V19.9446C13.1714 21.0669 11.7857 23.473 11.7857 26.9585L11.7571 56.1582ZM23.2785 19.6218L26.4285 44.0308C26.8785 47.5628 28.5393 49.847 31.3607 50.8439L28.45 27.3278C27.9143 23.1826 26.2178 20.651 23.2785 19.6218ZM47.1678 19.6218C44.2285 20.651 42.525 23.1826 41.9964 27.3314L39.0857 50.8296C41.9107 49.8327 43.5678 47.5485 44.0178 44.0164L47.1678 19.6218ZM16.9571 18.374C17.9589 18.1294 18.9868 18.0089 20.0178 18.0154C20.6626 18.0085 21.307 18.0469 21.9464 18.1301L21.7535 16.7209C21.5071 14.9925 20.6571 14.1175 19.2321 14.1175C17.8071 14.1175 16.9571 15.1323 16.9571 16.7639V18.374ZM50.4285 18.0154C51.4595 18.0089 52.4874 18.1294 53.4893 18.374V16.7782C53.4893 15.1467 52.6178 14.1319 51.2143 14.1319C49.8107 14.1319 48.9393 15.0068 48.6928 16.7352L48.5 18.1445C49.1394 18.0612 49.7838 18.0229 50.4285 18.0297V18.0154Z" fill="#B4448D"/>
<path d="M77.2142 57.2697H71.0178V13.7302H77.2142V57.2697ZM72.1428 56.1402H76.0893V14.8598H72.1428V56.1402Z" fill="#B4448D"/>
<path d="M117.414 57.9977C114.725 57.9977 114.111 55.5342 113.911 54.7238L113.446 52.6583C109.421 51.9412 106.964 49.3342 105.946 44.7121L100.114 19.2812C99.4473 19.1973 98.7757 19.1566 98.1035 19.1592C96.9873 19.1411 95.8748 19.2922 94.8035 19.6075V57.259H88.4893V26.7792C88.4893 22.8347 90.275 20.0916 93.6785 18.8078V16.7782C93.6785 14.5191 95.0428 13.0023 97.075 13.0023C98.8285 13.0023 100.118 14.1211 100.525 15.9929L101.043 18.2879C104.971 19.005 107.329 21.5367 108.425 26.2306L114.371 51.665C115.041 51.7488 115.715 51.7895 116.389 51.787C117.501 51.7956 118.609 51.6593 119.686 51.3818V13.7302H126V45.1818C126 48.4091 124.118 50.9407 120.811 52.185V54.1465C120.811 56.5275 119.511 57.9977 117.414 57.9977ZM114.643 52.8376L115 54.462C115.425 56.1689 116.125 56.8681 117.411 56.8681C118.839 56.8681 119.682 55.882 119.682 54.1608V52.54C118.601 52.7883 117.495 52.9086 116.386 52.8986C115.804 52.9 115.222 52.8712 114.643 52.8125V52.8305V52.8376ZM89.6143 56.1402H93.6785V20.0198C90.9785 21.1924 89.6143 23.4623 89.6143 26.7756V56.1402ZM101.318 19.4927L107.032 44.4611C107.918 48.4593 109.889 50.7005 113.161 51.4499L107.332 26.4816C106.382 22.426 104.514 20.235 101.318 19.4927ZM120.811 14.8598V50.9837C123.439 49.8649 124.875 47.8318 124.875 45.1962V14.8598H120.811ZM94.8035 18.417C95.8812 18.138 96.9907 18.003 98.1035 18.0154C98.6856 18.014 99.2673 18.0427 99.8464 18.1014V18.0835L99.425 16.2224C99.2535 15.4335 98.7107 14.1175 97.075 14.1175C95.4393 14.1175 94.8035 15.4837 94.8035 16.7639V18.417Z" fill="#B4448D"/>
<path d="M169.357 57.2697H162.75L159.493 44.3033H141.179L137.982 57.2697H131.375L139.896 25.7787C140.882 22.1821 143.136 19.7222 146.429 18.6464L147.018 16.1722C147.375 14.8096 148.089 13.0131 150.343 13.0131C152.596 13.0131 153.314 14.806 153.664 16.1614L154.246 18.6464C157.532 19.7222 159.786 22.1929 160.775 25.7859L169.357 57.2697ZM163.625 56.1402H167.882L159.689 26.0763C158.879 23.1252 157.121 21.031 154.579 19.9804L159.643 40.0648H141.107L146.107 19.9625C143.561 21.0382 141.804 23.1216 140.993 26.0584L132.857 56.1402H137.114L140.311 43.1737H160.357L163.625 56.1402ZM142.554 38.9281H158.189L153.318 19.5286C151.366 19.0301 149.32 19.0301 147.368 19.5286L142.554 38.9281ZM147.679 18.2592V18.3022C149.438 17.94 151.252 17.94 153.011 18.3022V18.2556L152.575 16.416C152.15 14.7701 151.525 14.1247 150.346 14.1247C149.168 14.1247 148.543 14.7701 148.114 16.4268L147.679 18.2556V18.2592Z" fill="#B4448D"/>
</svg>
